<svg width="20" height="20" viewBox="0 0 20 20" fill="none" xmlns="http://www.w3.org/2000/svg">
<g clip-path="url(#clip0_34_270)">
<path d="M16.875 10.3237V9.23596C16.875 7.4126 16.1507 5.66392 14.8613 4.3746C13.572 3.08529 11.8233 2.36096 9.99998 2.36096C8.17662 2.36096 6.42793 3.08529 5.13862 4.3746C3.84931 5.66392 3.12498 7.4126 3.12498 9.23596V10.3237C2.32378 10.6765 1.66809 11.2938 1.26768 12.0723C0.867262 12.8508 0.746429 13.7432 0.925405 14.6002C1.10438 15.4571 1.5723 16.2266 2.25084 16.7797C2.92937 17.3329 3.77733 17.6361 4.65276 17.6387C5.05795 17.6387 5.44655 17.4778 5.73306 17.1913C6.01957 16.9047 6.18054 16.5162 6.18054 16.111V11.5276C6.18054 11.1224 6.01957 10.7338 5.73306 10.4473C5.44655 10.1608 5.05795 9.99985 4.65276 9.99985V9.23596C4.65276 7.81779 5.21612 6.4577 6.21892 5.4549C7.22172 4.45211 8.58181 3.88874 9.99998 3.88874C11.4182 3.88874 12.7782 4.45211 13.781 5.4549C14.7838 6.4577 15.3472 7.81779 15.3472 9.23596V9.99985C14.942 9.99985 14.5534 10.1608 14.2669 10.4473C13.9804 10.7338 13.8194 11.1224 13.8194 11.5276V16.111H11.5278C11.3252 16.111 11.1309 16.1914 10.9876 16.3347C10.8443 16.478 10.7639 16.6723 10.7639 16.8749C10.7639 17.0774 10.8443 17.2717 10.9876 17.415C11.1309 17.5583 11.3252 17.6387 11.5278 17.6387H15.3472C16.2226 17.6361 17.0706 17.3329 17.7491 16.7797C18.4277 16.2266 18.8956 15.4571 19.0746 14.6002C19.2535 13.7432 19.1327 12.8508 18.7323 12.0723C18.3319 11.2938 17.6762 10.6765 16.875 10.3237ZM4.65276 16.111C4.04497 16.111 3.46207 15.8695 3.0323 15.4397C2.60253 15.01 2.36109 14.4271 2.36109 13.8193C2.36109 13.2115 2.60253 12.6286 3.0323 12.1988C3.46207 11.7691 4.04497 11.5276 4.65276 11.5276V16.111ZM15.3472 16.111V11.5276C15.955 11.5276 16.5379 11.7691 16.9677 12.1988C17.3974 12.6286 17.6389 13.2115 17.6389 13.8193C17.6389 14.4271 17.3974 15.01 16.9677 15.4397C16.5379 15.8695 15.955 16.111 15.3472 16.111Z" fill="#475569"/>
</g>
<defs>
<clipPath id="clip0_34_270">
<rect width="18.3333" height="18.3333" fill="white" transform="translate(0.833374 0.833374)"/>
</clipPath>
</defs>
</svg>
