<svg width="20" height="20" viewBox="0 0 20 20" fill="none" xmlns="http://www.w3.org/2000/svg">
<path d="M16.6667 10.2286C16.6667 10.5451 16.4315 10.8065 16.1265 10.8479L16.0417 10.8536L3.54167 10.8536C3.1965 10.8536 2.91667 10.5738 2.91667 10.2286C2.91667 9.91222 3.1518 9.65073 3.45686 9.60934L3.54167 9.60364L16.0417 9.60364C16.3868 9.60364 16.6667 9.88346 16.6667 10.2286Z" fill="#475569"/>
<path d="M9.02416 14.8061C9.26877 15.0496 9.26962 15.4454 9.02607 15.69C8.80466 15.9123 8.45748 15.9332 8.21242 15.7522L8.14219 15.6919L3.10052 10.6719C2.87749 10.4498 2.8572 10.1014 3.03966 9.8563L3.10048 9.78611L8.14215 4.76527C8.38673 4.5217 8.78246 4.52252 9.02603 4.7671C9.24746 4.98945 9.26691 5.33671 9.08486 5.58101L9.0242 5.65099L4.42751 10.2292L9.02416 14.8061Z" fill="#475569"/>
</svg>
