<svg width="20" height="20" viewBox="0 0 20 20" fill="none" xmlns="http://www.w3.org/2000/svg">
<mask id="mask0_34_335" style="mask-type:luminance" maskUnits="userSpaceOnUse" x="0" y="0" width="19" height="19">
<path fill-rule="evenodd" clip-rule="evenodd" d="M0.833374 0.833618H18.7442V18.7451H0.833374V0.833618Z" fill="white"/>
</mask>
<g mask="url(#mask0_34_335)">
<path fill-rule="evenodd" clip-rule="evenodd" d="M5.0904 16.3961C5.57374 16.3961 6.02957 16.5795 6.51207 16.7736C9.46791 18.1403 12.9637 17.5186 15.2412 15.242C18.2462 12.2353 18.2462 7.34445 15.2412 4.33945C13.7862 2.88445 11.8512 2.08362 9.79124 2.08362C7.7304 2.08362 5.79457 2.88528 4.3404 4.34028C2.06207 6.61695 1.44207 10.1128 2.79624 13.0403C2.99124 13.5228 3.17957 13.9928 3.17957 14.4811C3.17957 14.9686 3.01207 15.4595 2.86457 15.8928C2.74291 16.2495 2.55874 16.7878 2.67707 16.9061C2.7929 17.0261 3.33457 16.837 3.69207 16.7145C4.12124 16.5678 4.60791 16.3995 5.0904 16.3961ZM9.7704 18.7453C8.49707 18.7453 7.21541 18.4761 6.01624 17.9211C5.66291 17.7794 5.33207 17.6461 5.09457 17.6461C4.82124 17.6478 4.45374 17.7745 4.09874 17.8969C3.37041 18.1469 2.46374 18.4586 1.79291 17.7903C1.12457 17.1211 1.4329 16.217 1.68124 15.4895C1.80374 15.1311 1.92957 14.7611 1.92957 14.4811C1.92957 14.2511 1.81874 13.9578 1.64874 13.5353C0.0879049 10.1645 0.809572 6.10195 3.45707 3.45612C5.14707 1.76528 7.39624 0.833618 9.79041 0.833618C12.1846 0.833618 14.4346 1.76445 16.1246 3.45528C19.6179 6.94862 19.6179 12.632 16.1246 16.1253C14.4121 17.8386 12.1062 18.7453 9.7704 18.7453Z" fill="#475569"/>
</g>
<path fill-rule="evenodd" clip-rule="evenodd" d="M13.0803 10.9692C12.6203 10.9692 12.2437 10.5967 12.2437 10.1358C12.2437 9.67499 12.6128 9.30249 13.0728 9.30249H13.0803C13.5403 9.30249 13.9137 9.67499 13.9137 10.1358C13.9137 10.5967 13.5403 10.9692 13.0803 10.9692Z" fill="#475569"/>
<path fill-rule="evenodd" clip-rule="evenodd" d="M9.73962 10.9692C9.27962 10.9692 8.90295 10.5967 8.90295 10.1358C8.90295 9.67499 9.27129 9.30249 9.73212 9.30249H9.73962C10.1996 9.30249 10.573 9.67499 10.573 10.1358C10.573 10.5967 10.1996 10.9692 9.73962 10.9692Z" fill="#475569"/>
<path fill-rule="evenodd" clip-rule="evenodd" d="M6.39868 10.9692C5.93868 10.9692 5.56201 10.5967 5.56201 10.1358C5.56201 9.67499 5.93118 9.30249 6.39118 9.30249H6.39868C6.85868 9.30249 7.23201 9.67499 7.23201 10.1358C7.23201 10.5967 6.85868 10.9692 6.39868 10.9692Z" fill="#475569"/>
</svg>
