<svg width="15" height="19" viewBox="0 0 15 19" fill="none" xmlns="http://www.w3.org/2000/svg">
<path fill-rule="evenodd" clip-rule="evenodd" d="M4.95154 1.91663C2.82738 1.91663 1.74988 2.73496 1.74988 4.35079V16.6208C1.74988 16.6991 1.79488 16.7416 1.83238 16.7633C1.86988 16.7866 1.92904 16.8033 1.99738 16.765L7.31571 13.7816C7.50571 13.6758 7.73821 13.675 7.92904 13.7825L13.2015 16.7608C13.2707 16.8008 13.3299 16.7825 13.3674 16.76C13.4049 16.7375 13.449 16.695 13.449 16.6166V4.50329C13.449 3.86413 13.449 1.91663 10.2507 1.91663H4.95154ZM1.91571 18.0391C1.66988 18.0391 1.42404 17.9733 1.20071 17.8416C0.761545 17.5858 0.499878 17.1283 0.499878 16.6208V4.35079C0.499878 2.00913 2.12238 0.666626 4.95154 0.666626H10.2507C13.0774 0.666626 14.699 2.06579 14.699 4.50329V16.6166C14.699 17.125 14.4374 17.5825 13.9974 17.8383C13.559 18.095 13.0307 18.1 12.5874 17.85L7.62071 15.0441L2.60821 17.8558C2.39154 17.9775 2.15404 18.0391 1.91571 18.0391Z" fill="#475569"/>
</svg>
