<svg width="40" height="40" viewBox="0 0 40 40" fill="none" xmlns="http://www.w3.org/2000/svg">
<rect width="40" height="40" rx="20" fill="#F0F0FE"/>
<path d="M25.3356 23.1185L26.9518 22.0617L29.4176 23.5018C29.8389 23.7505 30.1394 23.9818 30.319 24.1959C30.4985 24.4032 30.5883 24.6483 30.5883 24.9315C30.5883 25.2216 30.4985 25.4737 30.319 25.6878C30.1394 25.895 29.8389 26.123 29.4176 26.3716L21.3158 31.0752C21.0672 31.2203 20.8358 31.3273 20.6217 31.3964C20.4144 31.4655 20.2072 31.5 20 31.5C19.7859 31.5 19.5753 31.4655 19.3681 31.3964C19.1608 31.3273 18.9329 31.2203 18.6843 31.0752L10.5721 26.3716C10.1577 26.123 9.86069 25.895 9.68111 25.6878C9.50153 25.4737 9.41174 25.2216 9.41174 24.9315C9.41174 24.6483 9.50153 24.4032 9.68111 24.1959C9.86069 23.9818 10.1577 23.7505 10.5721 23.5018L13.1622 21.9995L14.9027 22.9838L11.6496 24.8383C11.6012 24.8659 11.5771 24.897 11.5771 24.9315C11.5771 24.973 11.6012 25.0075 11.6496 25.0351L19.5338 29.5523C19.7065 29.6489 19.8619 29.6973 20 29.6973C20.1313 29.6973 20.2832 29.6489 20.4559 29.5523L28.3401 25.0351C28.3954 25.0075 28.423 24.973 28.423 24.9315C28.423 24.897 28.3954 24.8659 28.3401 24.8383L25.3356 23.1185ZM25.1077 18.218L26.7135 17.1509L29.4176 18.7257C29.8389 18.9743 30.1394 19.2057 30.319 19.4198C30.4985 19.6339 30.5883 19.8826 30.5883 20.1658C30.5883 20.4489 30.4985 20.6976 30.319 20.9117C30.1394 21.1258 29.8389 21.3538 29.4176 21.5955L21.3158 26.3095C21.0672 26.4545 20.8358 26.5616 20.6217 26.6306C20.4144 26.6997 20.2072 26.7342 20 26.7342C19.7859 26.7342 19.5753 26.6997 19.3681 26.6306C19.1608 26.5616 18.9329 26.4545 18.6843 26.3095L10.5721 21.5955C10.1577 21.3538 9.86069 21.1258 9.68111 20.9117C9.50153 20.6976 9.41174 20.4489 9.41174 20.1658C9.41174 19.8826 9.50153 19.6339 9.68111 19.4198C9.86069 19.2057 10.1577 18.9743 10.5721 18.7257L13.4834 17.0473L15.141 18.0626L11.6496 20.0622C11.6012 20.0898 11.5771 20.1243 11.5771 20.1658C11.5771 20.2072 11.6012 20.2417 11.6496 20.2694L19.5338 24.7761C19.7065 24.8728 19.8619 24.9212 20 24.9212C20.1313 24.9212 20.2832 24.8728 20.4559 24.7761L28.3401 20.2694C28.3954 20.2417 28.423 20.2072 28.423 20.1658C28.423 20.1243 28.3954 20.0898 28.3401 20.0622L25.1077 18.218ZM20 21.6266C19.7859 21.6266 19.5753 21.592 19.3681 21.523C19.1608 21.4539 18.9329 21.3468 18.6843 21.2018L10.5721 16.4982C10.1577 16.2495 9.86069 16.0216 9.68111 15.8144C9.50153 15.6003 9.41174 15.3482 9.41174 15.0581C9.41174 14.7749 9.50153 14.5297 9.68111 14.3225C9.86069 14.1084 10.1577 13.877 10.5721 13.6284L18.6843 8.92477C18.9329 8.77973 19.1608 8.67267 19.3681 8.6036C19.5753 8.53453 19.7859 8.5 20 8.5C20.2072 8.5 20.4144 8.53453 20.6217 8.6036C20.8358 8.67267 21.0672 8.77973 21.3158 8.92477L29.4176 13.6284C29.8389 13.877 30.1394 14.1084 30.319 14.3225C30.4985 14.5297 30.5883 14.7749 30.5883 15.0581C30.5883 15.3482 30.4985 15.6003 30.319 15.8144C30.1394 16.0216 29.8389 16.2495 29.4176 16.4982L21.3158 21.2018C21.0672 21.3468 20.8358 21.4539 20.6217 21.523C20.4144 21.592 20.2072 21.6266 20 21.6266ZM20 19.8239C20.1313 19.8239 20.2832 19.7755 20.4559 19.6788L28.3401 15.1617C28.3954 15.1341 28.423 15.0995 28.423 15.0581C28.423 15.0236 28.3954 14.9925 28.3401 14.9649L20.4559 10.4477C20.2832 10.3511 20.1313 10.3027 20 10.3027C19.8619 10.3027 19.7065 10.3511 19.5338 10.4477L11.6496 14.9649C11.6012 14.9925 11.5771 15.0236 11.5771 15.0581C11.5771 15.0995 11.6012 15.1341 11.6496 15.1617L19.5338 19.6788C19.7065 19.7755 19.8619 19.8239 20 19.8239Z" fill="#4B49B0"/>
</svg>
