<svg width="16" height="19" viewBox="0 0 16 19" fill="none" xmlns="http://www.w3.org/2000/svg">
<mask id="mask0_34_389" style="mask-type:luminance" maskUnits="userSpaceOnUse" x="0" y="0" width="16" height="16">
<path fill-rule="evenodd" clip-rule="evenodd" d="M0.500122 0.833374H15.9142V15.29H0.500122V0.833374Z" fill="white"/>
</mask>
<g mask="url(#mask0_34_389)">
<path fill-rule="evenodd" clip-rule="evenodd" d="M8.20597 2.08337C5.29347 2.08337 3.26347 4.36504 3.26347 6.41254C3.26347 8.14504 2.78263 8.94587 2.35763 9.65254C2.0168 10.22 1.74763 10.6684 1.74763 11.6425C1.8868 13.2142 2.9243 14.04 8.20597 14.04C13.4585 14.04 14.5285 13.1775 14.6668 11.5884C14.6643 10.6684 14.3951 10.22 14.0543 9.65254C13.6293 8.94587 13.1485 8.14504 13.1485 6.41254C13.1485 4.36504 11.1185 2.08337 8.20597 2.08337ZM8.20597 15.29C4.3093 15.29 0.787633 15.015 0.500133 11.6959C0.497633 10.3225 0.9168 9.62421 1.2868 9.00921C1.66097 8.38587 2.01347 7.79837 2.01347 6.41254C2.01347 3.71837 4.5018 0.833374 8.20597 0.833374C11.9101 0.833374 14.3985 3.71837 14.3985 6.41254C14.3985 7.79837 14.751 8.38587 15.1251 9.00921C15.4951 9.62421 15.9143 10.3225 15.9143 11.6425C15.6235 15.015 12.1026 15.29 8.20597 15.29Z" fill="#475569"/>
</g>
<path fill-rule="evenodd" clip-rule="evenodd" d="M8.16535 18.75H8.16368C7.22951 18.7492 6.34535 18.3375 5.67451 17.59C5.44368 17.3342 5.46451 16.9383 5.72118 16.7083C5.97785 16.4767 6.37285 16.4975 6.60368 16.755C7.03535 17.2358 7.58951 17.5 8.16452 17.5H8.16535C8.74285 17.5 9.29952 17.2358 9.73202 16.7542C9.96368 16.4983 10.3587 16.4775 10.6145 16.7083C10.8712 16.9392 10.892 17.335 10.6612 17.5908C9.98785 18.3383 9.10202 18.75 8.16535 18.75Z" fill="#475569"/>
</svg>
