<svg width="32" height="32" viewBox="0 0 32 32" fill="none" xmlns="http://www.w3.org/2000/svg">
<rect width="32" height="32" rx="16" fill="#E2F3FF"/>
<g clip-path="url(#clip0_40_1130)">
<path d="M14.9382 22.3327C14.7012 22.3326 14.4676 22.2761 14.2567 22.1679C14.0459 22.0596 13.8638 21.9028 13.7256 21.7102C13.5874 21.5177 13.497 21.295 13.4619 21.0606C13.4268 20.8262 13.448 20.5868 13.5237 20.3622L14.6015 17.3327H12.421L11.821 18.2472C11.6695 18.4786 11.4627 18.6686 11.2193 18.7999C10.9759 18.9313 10.7036 18.9998 10.4271 18.9994C10.1986 18.9994 9.97356 18.9442 9.77098 18.8386C9.5684 18.733 9.39429 18.5801 9.26342 18.3929C9.13255 18.2056 9.04879 17.9895 9.01925 17.763C8.98971 17.5365 9.01527 17.3062 9.09374 17.0916L9.61096 15.6661L9.08818 14.2439C9.00952 14.0297 8.98365 13.7997 9.01276 13.5734C9.04187 13.3471 9.1251 13.1311 9.25541 12.9439C9.41021 12.7461 9.61044 12.5885 9.8391 12.4846C10.0678 12.3807 10.3181 12.3335 10.5689 12.347C10.8197 12.3604 11.0636 12.4342 11.2798 12.562C11.496 12.6898 11.6782 12.8678 11.811 13.0811L12.4193 13.9994H14.6015L13.526 10.9789C13.449 10.7531 13.4269 10.5123 13.4616 10.2764C13.4963 10.0405 13.5867 9.81618 13.7254 9.62218C13.8906 9.41235 14.1057 9.24716 14.351 9.14165C14.5964 9.03614 14.8642 8.99365 15.1302 9.01805C15.3961 9.04246 15.6517 9.13298 15.8738 9.28138C16.0958 9.42978 16.2772 9.63134 16.4015 9.86774L18.7665 13.9994H20.6071C21.0089 13.9944 21.3997 14.1307 21.7111 14.3846C22.0226 14.6385 22.2349 14.9937 22.311 15.3883C22.3514 15.6274 22.3391 15.8724 22.2751 16.1062C22.2111 16.3401 22.0968 16.5572 21.9402 16.7423C21.7836 16.9275 21.5885 17.0762 21.3686 17.1782C21.1486 17.2801 20.909 17.3329 20.6665 17.3327H18.7665L16.396 21.4739C16.2523 21.7345 16.0411 21.9518 15.7847 22.1029C15.5282 22.254 15.2358 22.3334 14.9382 22.3327ZM12.121 16.2216H15.3887C15.4774 16.2224 15.5647 16.2443 15.6432 16.2854C15.7218 16.3266 15.7894 16.3858 15.8406 16.4583C15.8917 16.5307 15.9249 16.6143 15.9373 16.7022C15.9497 16.79 15.9411 16.8795 15.9121 16.9633L14.5732 20.7261C14.5553 20.7825 14.551 20.8424 14.5607 20.9008C14.5703 20.9592 14.5936 21.0145 14.6287 21.0622C14.6848 21.1177 14.7531 21.1592 14.8283 21.1832C14.9034 21.2073 14.9832 21.2132 15.061 21.2005C15.1389 21.1878 15.2126 21.1569 15.2762 21.1103C15.3399 21.0636 15.3915 21.0026 15.4271 20.9322L17.9621 16.4994C18.0109 16.4148 18.0812 16.3446 18.1659 16.2958C18.2506 16.247 18.3466 16.2214 18.4443 16.2216H20.6665C20.7477 16.2217 20.828 16.2039 20.9016 16.1696C20.9752 16.1353 21.0403 16.0852 21.0925 16.023C21.1447 15.9607 21.1826 15.8878 21.2035 15.8094C21.2245 15.7309 21.228 15.6488 21.2137 15.5689C21.1808 15.4343 21.1025 15.3152 20.992 15.2317C20.8815 15.1482 20.7455 15.1054 20.6071 15.1105H18.4443C18.3466 15.1107 18.2506 15.0851 18.1659 15.0364C18.0812 14.9876 18.0109 14.9174 17.9621 14.8327L15.4315 10.41C15.3978 10.3372 15.3469 10.2737 15.2833 10.2249C15.2197 10.1761 15.1452 10.1434 15.0662 10.1297C14.9872 10.1159 14.906 10.1215 14.8297 10.1459C14.7533 10.1704 14.684 10.2129 14.6276 10.27C14.5921 10.3192 14.5689 10.3762 14.5599 10.4362C14.5509 10.4962 14.5564 10.5575 14.576 10.615L15.9093 14.3689C15.9382 14.4524 15.9469 14.5417 15.9346 14.6293C15.9223 14.7169 15.8894 14.8004 15.8386 14.8728C15.7878 14.9452 15.7205 15.0045 15.6423 15.0458C15.5641 15.0871 15.4772 15.1093 15.3887 15.1105H12.121C12.0292 15.1105 11.9388 15.0878 11.858 15.0444C11.7771 15.0009 11.7083 14.9382 11.6576 14.8616L10.8837 13.695C10.7571 13.4611 10.3093 13.3411 10.1671 13.5783C10.138 13.6188 10.1195 13.6659 10.1132 13.7154C10.1069 13.7649 10.113 13.8151 10.131 13.8616L10.7265 15.4761C10.772 15.5998 10.772 15.7357 10.7265 15.8594L10.1343 17.4761C10.1178 17.5226 10.1127 17.5724 10.1193 17.6213C10.126 17.6702 10.1444 17.7168 10.1728 17.7571C10.2011 17.7975 10.2388 17.8305 10.2826 17.8533C10.3263 17.8761 10.3749 17.8881 10.4243 17.8883C10.5166 17.8883 10.6074 17.8654 10.6886 17.8216C10.7697 17.7777 10.8387 17.7144 10.8893 17.6372L11.6537 16.4705C11.7048 16.3934 11.7742 16.3303 11.8558 16.2868C11.9374 16.2434 12.0285 16.221 12.121 16.2216Z" fill="#00B5D7"/>
</g>
<defs>
<clipPath id="clip0_40_1130">
<rect width="13.3333" height="13.3333" fill="white" transform="translate(9 9)"/>
</clipPath>
</defs>
</svg>
