<svg width="17" height="13" viewBox="0 0 17 13" fill="none" xmlns="http://www.w3.org/2000/svg">
<mask id="mask0_34_232" style="mask-type:luminance" maskUnits="userSpaceOnUse" x="0" y="0" width="17" height="18">
<path fill-rule="evenodd" clip-rule="evenodd" d="M0.666626 0.667114H16.7373V17.9346H0.666626V0.667114Z" fill="white"/>
</mask>
<g mask="url(#mask0_34_232)">
<path fill-rule="evenodd" clip-rule="evenodd" d="M5.00177 13.5338C5.1926 13.5338 5.38344 13.5579 5.5701 13.6079C6.13344 13.7596 6.6226 14.1363 6.9126 14.6421C7.10094 14.9596 7.2051 15.3304 7.20844 15.7088C7.20844 16.2504 7.64344 16.6846 8.17844 16.6846H9.2226C9.7551 16.6846 10.1901 16.2529 10.1926 15.7204C10.1893 15.1321 10.4193 14.5729 10.8401 14.1521C11.2551 13.7371 11.8351 13.4879 12.4151 13.5046C12.7951 13.5138 13.1609 13.6163 13.4834 13.7996C13.9476 14.0654 14.5401 13.9071 14.8084 13.4488L15.3618 12.5263C15.4851 12.3138 15.5209 12.0471 15.4551 11.8013C15.3901 11.5554 15.2268 11.3421 15.0068 11.2163C14.4918 10.9196 14.1243 10.4413 13.9718 9.86795C13.8209 9.30545 13.9034 8.69128 14.1976 8.18545C14.3893 7.85211 14.6701 7.57128 15.0068 7.37795C15.4584 7.11378 15.6168 6.52295 15.3543 6.06295C15.3434 6.04461 15.3334 6.02545 15.3251 6.00545L14.8368 5.15878C14.5709 4.69628 13.9793 4.53711 13.5151 4.80128C13.0134 5.09795 12.4168 5.18295 11.8434 5.03211C11.2709 4.88378 10.7909 4.52128 10.4918 4.00961C10.3001 3.68961 10.1959 3.31711 10.1926 2.93795C10.2001 2.65295 10.1001 2.39711 9.91844 2.20961C9.7376 2.02295 9.48344 1.91711 9.2226 1.91711H8.17844C7.9201 1.91711 7.67844 2.01795 7.49594 2.19961C7.31427 2.38211 7.2151 2.62461 7.21677 2.88295C7.19927 4.10128 6.20344 5.08211 4.9976 5.08211C4.61094 5.07795 4.23844 4.97378 3.9151 4.78045C3.46094 4.52211 2.8676 4.68128 2.60177 5.14378L2.0376 6.07128C1.77927 6.51961 1.9376 7.11211 2.3976 7.37961C3.0801 7.77461 3.50594 8.51128 3.50594 9.30128C3.50594 10.0913 3.0801 10.8271 2.39594 11.2229C1.93844 11.4879 1.7801 12.0771 2.0451 12.5354L2.57094 13.4421C2.70094 13.6763 2.91344 13.8454 3.15927 13.9146C3.40427 13.9829 3.67427 13.9538 3.89927 13.8288C4.2301 13.6346 4.6151 13.5338 5.00177 13.5338ZM9.2226 17.9346H8.17844C6.95427 17.9346 5.95844 16.9396 5.95844 15.7154C5.95677 15.5646 5.91344 15.4079 5.8326 15.2721C5.70177 15.0438 5.4901 14.8804 5.24594 14.8154C5.00344 14.7504 4.7376 14.7863 4.51927 14.9129C3.99594 15.2046 3.3801 15.2754 2.81677 15.1171C2.25427 14.9579 1.76844 14.5713 1.48344 14.0588L0.962604 13.1613C0.353437 12.1046 0.715937 10.7504 1.77094 10.1404C2.0701 9.96795 2.25594 9.64628 2.25594 9.30128C2.25594 8.95628 2.0701 8.63378 1.77094 8.46128C0.715104 7.84795 0.353437 6.49045 0.96177 5.43378L1.52677 4.50628C2.1276 3.46128 3.48594 3.09295 4.5451 3.70128C4.68927 3.78711 4.84594 3.83045 5.0051 3.83211C5.52427 3.83211 5.95844 3.40378 5.96677 2.87711C5.96344 2.29628 6.1926 1.73878 6.6101 1.31795C7.02927 0.897948 7.58594 0.667114 8.17844 0.667114H9.2226C9.81927 0.667114 10.3993 0.912114 10.8151 1.33795C11.2301 1.76628 11.4593 2.35378 11.4418 2.94961C11.4434 3.08378 11.4876 3.23878 11.5676 3.37461C11.7001 3.59961 11.9093 3.75795 12.1576 3.82295C12.4059 3.88461 12.6659 3.85128 12.8868 3.72045C13.9534 3.11128 15.3109 3.47628 15.9201 4.53461L16.4393 5.43378C16.4526 5.45795 16.4643 5.48128 16.4743 5.50545C17.0259 6.54795 16.6576 7.86045 15.6326 8.45961C15.4834 8.54545 15.3626 8.66545 15.2793 8.81045C15.1501 9.03461 15.1143 9.30128 15.1793 9.54628C15.2459 9.79628 15.4051 10.0038 15.6293 10.1321C16.1351 10.4229 16.5126 10.9129 16.6634 11.4788C16.8143 12.0438 16.7318 12.6571 16.4376 13.1629L15.8843 14.0846C15.2751 15.1313 13.9176 15.4938 12.8618 14.8838C12.7209 14.8029 12.5584 14.7588 12.3968 14.7546H12.3918C12.1509 14.7546 11.9034 14.8571 11.7234 15.0363C11.5409 15.2188 11.4409 15.4621 11.4426 15.7204C11.4368 16.9446 10.4409 17.9346 9.2226 17.9346Z" fill="#475569"/>
</g>
<path fill-rule="evenodd" clip-rule="evenodd" d="M8.70424 7.72888C7.83757 7.72888 7.13257 8.43471 7.13257 9.30138C7.13257 10.168 7.83757 10.8722 8.70424 10.8722C9.5709 10.8722 10.2759 10.168 10.2759 9.30138C10.2759 8.43471 9.5709 7.72888 8.70424 7.72888ZM8.70423 12.1222C7.1484 12.1222 5.88257 10.8572 5.88257 9.30138C5.88257 7.74555 7.1484 6.47888 8.70423 6.47888C10.2601 6.47888 11.5259 7.74555 11.5259 9.30138C11.5259 10.8572 10.2601 12.1222 8.70423 12.1222Z" fill="#475569"/>
</svg>
