<svg width="20" height="20" viewBox="0 0 20 20" fill="none" xmlns="http://www.w3.org/2000/svg">
<path fill-rule="evenodd" clip-rule="evenodd" d="M5.27308 6.95612L5.77558 12.9328C5.81224 13.3928 6.18808 13.7378 6.64724 13.7378H6.65058H15.7431H15.7447C16.1789 13.7378 16.5497 13.4145 16.6114 12.9853L17.4031 7.51945C17.4214 7.38945 17.3889 7.25945 17.3097 7.15445C17.2314 7.04862 17.1164 6.98028 16.9864 6.96195C16.8122 6.96862 9.58474 6.95862 5.27308 6.95612ZM6.64558 14.9878C5.54808 14.9878 4.61891 14.1311 4.52974 13.0353L3.76641 3.95695L2.51058 3.74028C2.16974 3.68028 1.94224 3.35778 2.00058 3.01695C2.06058 2.67612 2.38974 2.45445 2.72308 2.50778L4.45641 2.80778C4.73558 2.85695 4.94808 3.08862 4.97224 3.37195L5.16808 5.70612C17.0647 5.71112 17.1031 5.71695 17.1606 5.72362C17.6247 5.79112 18.0331 6.03362 18.3114 6.40695C18.5897 6.77945 18.7064 7.23862 18.6397 7.69862L17.8489 13.1636C17.6997 14.2036 16.7964 14.9878 15.7464 14.9878H15.7422H6.65224H6.64558Z" fill="#475569"/>
<path fill-rule="evenodd" clip-rule="evenodd" d="M14.4063 10.0364H12.0963C11.7505 10.0364 11.4713 9.75638 11.4713 9.41138C11.4713 9.06638 11.7505 8.78638 12.0963 8.78638H14.4063C14.7513 8.78638 15.0313 9.06638 15.0313 9.41138C15.0313 9.75638 14.7513 10.0364 14.4063 10.0364Z" fill="#475569"/>
<path fill-rule="evenodd" clip-rule="evenodd" d="M6.28705 17.2516C6.53789 17.2516 6.74039 17.4541 6.74039 17.7049C6.74039 17.9558 6.53789 18.1591 6.28705 18.1591C6.03539 18.1591 5.83289 17.9558 5.83289 17.7049C5.83289 17.4541 6.03539 17.2516 6.28705 17.2516Z" fill="#475569"/>
<mask id="mask0_34_695" style="mask-type:luminance" maskUnits="userSpaceOnUse" x="5" y="17" width="2" height="2">
<path fill-rule="evenodd" clip-rule="evenodd" d="M5.83252 17.7046C5.83252 17.9562 6.03502 18.1596 6.28752 18.1596C6.53835 18.1596 6.74085 17.9562 6.74085 17.7046C6.74085 17.4537 6.53835 17.2512 6.28752 17.2512C6.03502 17.2512 5.83252 17.4537 5.83252 17.7046Z" fill="white"/>
</mask>
<g mask="url(#mask0_34_695)">
<path fill-rule="evenodd" clip-rule="evenodd" d="M1.66663 22.3254H10.9075V13.0846H1.66663V22.3254Z" fill="#475569"/>
</g>
<path fill-rule="evenodd" clip-rule="evenodd" d="M6.28622 17.534C6.19205 17.534 6.11539 17.6106 6.11539 17.7048C6.11539 17.894 6.45789 17.894 6.45789 17.7048C6.45789 17.6106 6.38039 17.534 6.28622 17.534ZM6.28622 18.784C5.69122 18.784 5.20789 18.2998 5.20789 17.7048C5.20789 17.1098 5.69122 16.6265 6.28622 16.6265C6.88122 16.6265 7.36539 17.1098 7.36539 17.7048C7.36539 18.2998 6.88122 18.784 6.28622 18.784Z" fill="#475569"/>
<path fill-rule="evenodd" clip-rule="evenodd" d="M15.6873 17.2516C15.9382 17.2516 16.1415 17.4541 16.1415 17.7049C16.1415 17.9558 15.9382 18.1591 15.6873 18.1591C15.4357 18.1591 15.2332 17.9558 15.2332 17.7049C15.2332 17.4541 15.4357 17.2516 15.6873 17.2516Z" fill="#475569"/>
<mask id="mask1_34_695" style="mask-type:luminance" maskUnits="userSpaceOnUse" x="15" y="17" width="2" height="2">
<path fill-rule="evenodd" clip-rule="evenodd" d="M15.2333 17.7046C15.2333 17.9562 15.4358 18.1596 15.6874 18.1596C15.9374 18.1596 16.1416 17.9562 16.1416 17.7046C16.1416 17.4537 15.9374 17.2512 15.6874 17.2512C15.4358 17.2512 15.2333 17.4537 15.2333 17.7046Z" fill="white"/>
</mask>
<g mask="url(#mask1_34_695)">
<path fill-rule="evenodd" clip-rule="evenodd" d="M11.0667 22.3254H20.3083V13.0846H11.0667V22.3254Z" fill="#475569"/>
</g>
<path fill-rule="evenodd" clip-rule="evenodd" d="M15.6865 17.534C15.5932 17.534 15.5165 17.6106 15.5165 17.7048C15.5173 17.8956 15.859 17.894 15.8582 17.7048C15.8582 17.6106 15.7807 17.534 15.6865 17.534ZM15.6865 18.784C15.0915 18.784 14.6082 18.2998 14.6082 17.7048C14.6082 17.1098 15.0915 16.6265 15.6865 16.6265C16.2823 16.6265 16.7665 17.1098 16.7665 17.7048C16.7665 18.2998 16.2823 18.784 15.6865 18.784Z" fill="#475569"/>
</svg>
